<mxfile host="app.diagrams.net" modified="2021-10-30T23:07:02.978Z" agent="5.0 (X11)" etag="DlsDDsAjGMLr2oxHLG52" version="15.6.2" type="github">
  <diagram id="C5RBs43oDa-KdzZeNtuy" name="Page-1">
    <mxGraphModel dx="2249" dy="724" grid="1" gridSize="10" guides="1" tooltips="1" connect="1" arrows="1" fold="1" page="1" pageScale="1" pageWidth="827" pageHeight="1169" math="0" shadow="0">
      <root>
        <mxCell id="WIyWlLk6GJQsqaUBKTNV-0" />
        <mxCell id="WIyWlLk6GJQsqaUBKTNV-1" parent="WIyWlLk6GJQsqaUBKTNV-0" />
        <mxCell id="zkfFHV4jXpPFQw0GAbJ--0" value="&lt;&lt; interface &gt;&gt;&#xa;ElasticInterface" style="swimlane;fontStyle=2;align=center;verticalAlign=top;childLayout=stackLayout;horizontal=1;startSize=40;horizontalStack=0;resizeParent=1;resizeLast=0;collapsible=1;marginBottom=0;rounded=0;shadow=0;strokeWidth=1;" parent="WIyWlLk6GJQsqaUBKTNV-1" vertex="1">
          <mxGeometry x="-10" width="540" height="270" as="geometry">
            <mxRectangle x="230" y="140" width="160" height="26" as="alternateBounds" />
          </mxGeometry>
        </mxCell>
        <mxCell id="zkfFHV4jXpPFQw0GAbJ--4" value="" style="line;html=1;strokeWidth=1;align=left;verticalAlign=middle;spacingTop=-1;spacingLeft=3;spacingRight=3;rotatable=0;labelPosition=right;points=[];portConstraint=eastwest;" parent="zkfFHV4jXpPFQw0GAbJ--0" vertex="1">
          <mxGeometry y="40" width="540" height="8" as="geometry" />
        </mxCell>
        <mxCell id="zkfFHV4jXpPFQw0GAbJ--5" value="+ void setResult(QueryResultDTO res) &#xa;+ QueryResultDTO getResult() &#xa;+ String findCodeByUserSyncString(String user) &#xa;+ String findCodeByGroupSyncString(String group) &#xa;+ String findCodeByLabelErrorSyncString(Double label) &#xa;+ String findCodeByLabelMutantSyncString(Double label) &#xa;+ String findCodeByLabelErrorCredentialsSyncString(Double label,String user, String group) &#xa;+ String findCodeByLabelMutantCredentialsSyncString(Double label,String user, String group) &#xa;+ QueryResultDTO findCodeByUserSync(String user) &#xa;+ QueryResultDTO findCodeByGroupSync(String group) &#xa;+ QueryResultDTO findCodeByLabelErrorSync(Double label) &#xa;+ QueryResultDTO findCodeByLabelMutantSync(Double label) &#xa;+ QueryResultDTO findCodeByLabelErrorCredentialsSync(Double label,String user, String group) &#xa;+ QueryResultDTO findCodeByLabelMutantCredentialsSync(Double label,String user, String group) &#xa;" style="text;align=left;verticalAlign=top;spacingLeft=4;spacingRight=4;overflow=hidden;rotatable=0;points=[[0,0.5],[1,0.5]];portConstraint=eastwest;" parent="zkfFHV4jXpPFQw0GAbJ--0" vertex="1">
          <mxGeometry y="48" width="540" height="222" as="geometry" />
        </mxCell>
        <mxCell id="zkfFHV4jXpPFQw0GAbJ--6" value="&lt;&lt; interface &gt;&gt;&#xa;(Remote ElasticInterfaceImplDTO)&#xa;ElasticInterface" style="swimlane;fontStyle=0;align=center;verticalAlign=top;childLayout=stackLayout;horizontal=1;startSize=60;horizontalStack=0;resizeParent=1;resizeLast=0;collapsible=1;marginBottom=0;rounded=0;shadow=0;strokeWidth=1;" parent="WIyWlLk6GJQsqaUBKTNV-1" vertex="1">
          <mxGeometry x="-60" y="350" width="220" height="120" as="geometry">
            <mxRectangle x="130" y="380" width="160" height="26" as="alternateBounds" />
          </mxGeometry>
        </mxCell>
        <mxCell id="zkfFHV4jXpPFQw0GAbJ--9" value="" style="line;html=1;strokeWidth=1;align=left;verticalAlign=middle;spacingTop=-1;spacingLeft=3;spacingRight=3;rotatable=0;labelPosition=right;points=[];portConstraint=eastwest;" parent="zkfFHV4jXpPFQw0GAbJ--6" vertex="1">
          <mxGeometry y="60" width="220" height="8" as="geometry" />
        </mxCell>
        <mxCell id="Kh6skNde1Fd5iUF5DBpw-3" value="Same methods as ElasticInterface" style="text;html=1;align=center;verticalAlign=middle;resizable=0;points=[];autosize=1;strokeColor=none;fillColor=none;" vertex="1" parent="zkfFHV4jXpPFQw0GAbJ--6">
          <mxGeometry y="68" width="220" height="20" as="geometry" />
        </mxCell>
        <mxCell id="Kh6skNde1Fd5iUF5DBpw-0" style="edgeStyle=orthogonalEdgeStyle;rounded=0;orthogonalLoop=1;jettySize=auto;html=1;exitX=0;exitY=0.5;exitDx=0;exitDy=0;entryX=1;entryY=0.25;entryDx=0;entryDy=0;" edge="1" parent="WIyWlLk6GJQsqaUBKTNV-1" target="zkfFHV4jXpPFQw0GAbJ--6">
          <mxGeometry relative="1" as="geometry">
            <mxPoint x="460" y="379" as="sourcePoint" />
            <Array as="points">
              <mxPoint x="460" y="380" />
            </Array>
          </mxGeometry>
        </mxCell>
        <mxCell id="Kh6skNde1Fd5iUF5DBpw-7" style="edgeStyle=orthogonalEdgeStyle;rounded=0;orthogonalLoop=1;jettySize=auto;html=1;exitX=0.75;exitY=1;exitDx=0;exitDy=0;entryX=0;entryY=0.25;entryDx=0;entryDy=0;" edge="1" parent="WIyWlLk6GJQsqaUBKTNV-1" source="zkfFHV4jXpPFQw0GAbJ--13" target="2bxaREs7knKv4sqMbuMS-90">
          <mxGeometry relative="1" as="geometry" />
        </mxCell>
        <mxCell id="Kh6skNde1Fd5iUF5DBpw-8" style="edgeStyle=orthogonalEdgeStyle;rounded=0;orthogonalLoop=1;jettySize=auto;html=1;exitX=0.5;exitY=1;exitDx=0;exitDy=0;entryX=0;entryY=0.25;entryDx=0;entryDy=0;" edge="1" parent="WIyWlLk6GJQsqaUBKTNV-1" source="zkfFHV4jXpPFQw0GAbJ--13" target="2bxaREs7knKv4sqMbuMS-92">
          <mxGeometry relative="1" as="geometry" />
        </mxCell>
        <mxCell id="zkfFHV4jXpPFQw0GAbJ--13" value="ElasticInterfaceProxy" style="swimlane;fontStyle=0;align=center;verticalAlign=top;childLayout=stackLayout;horizontal=1;startSize=26;horizontalStack=0;resizeParent=1;resizeLast=0;collapsible=1;marginBottom=0;rounded=0;shadow=0;strokeWidth=1;" parent="WIyWlLk6GJQsqaUBKTNV-1" vertex="1">
          <mxGeometry x="460" y="340" width="160" height="60" as="geometry">
            <mxRectangle x="340" y="380" width="170" height="26" as="alternateBounds" />
          </mxGeometry>
        </mxCell>
        <mxCell id="zkfFHV4jXpPFQw0GAbJ--15" value="" style="line;html=1;strokeWidth=1;align=left;verticalAlign=middle;spacingTop=-1;spacingLeft=3;spacingRight=3;rotatable=0;labelPosition=right;points=[];portConstraint=eastwest;" parent="zkfFHV4jXpPFQw0GAbJ--13" vertex="1">
          <mxGeometry y="26" width="160" height="8" as="geometry" />
        </mxCell>
        <mxCell id="Kh6skNde1Fd5iUF5DBpw-4" value="+ ElasticInterfaceProxy()" style="text;html=1;align=left;verticalAlign=middle;resizable=0;points=[];autosize=1;strokeColor=none;fillColor=none;" vertex="1" parent="zkfFHV4jXpPFQw0GAbJ--13">
          <mxGeometry y="34" width="160" height="20" as="geometry" />
        </mxCell>
        <mxCell id="zkfFHV4jXpPFQw0GAbJ--16" value="" style="endArrow=block;endSize=10;endFill=0;shadow=0;strokeWidth=1;rounded=0;edgeStyle=elbowEdgeStyle;elbow=vertical;" parent="WIyWlLk6GJQsqaUBKTNV-1" source="zkfFHV4jXpPFQw0GAbJ--13" target="zkfFHV4jXpPFQw0GAbJ--0" edge="1">
          <mxGeometry width="160" relative="1" as="geometry">
            <mxPoint x="210" y="373" as="sourcePoint" />
            <mxPoint x="310" y="271" as="targetPoint" />
          </mxGeometry>
        </mxCell>
        <mxCell id="2bxaREs7knKv4sqMbuMS-3" value="QueryResultDTO" style="swimlane;fontStyle=0;align=center;verticalAlign=top;childLayout=stackLayout;horizontal=1;startSize=26;horizontalStack=0;resizeParent=1;resizeLast=0;collapsible=1;marginBottom=0;rounded=0;shadow=0;strokeWidth=1;" parent="WIyWlLk6GJQsqaUBKTNV-1" vertex="1">
          <mxGeometry x="730" y="190" width="210" height="258" as="geometry">
            <mxRectangle x="130" y="380" width="160" height="26" as="alternateBounds" />
          </mxGeometry>
        </mxCell>
        <mxCell id="2bxaREs7knKv4sqMbuMS-4" value="+ fullJson:String&#xa;+ onlyHitsJson:String[]&#xa;+ ids:Integer[]&#xa;+ code:String[] &#xa;+ solution:String[] &#xa;+ source:String[] &#xa;+ user:String[] &#xa;+ group:String[] &#xa;+ labelError:Double[] &#xa;+ probabilityErrorString:String[] &#xa;+ rawPredictionErrorString:String[] &#xa;+ labelMutation:Double[] &#xa;+ probabilityMutationString:String[] &#xa;+ rawPredictionMutationString:String[] &#xa;+ featureString:String[] &#xa;" style="text;align=left;verticalAlign=top;spacingLeft=4;spacingRight=4;overflow=hidden;rotatable=0;points=[[0,0.5],[1,0.5]];portConstraint=eastwest;rounded=0;shadow=0;html=0;" parent="2bxaREs7knKv4sqMbuMS-3" vertex="1">
          <mxGeometry y="26" width="210" height="224" as="geometry" />
        </mxCell>
        <mxCell id="2bxaREs7knKv4sqMbuMS-5" value="" style="line;html=1;strokeWidth=1;align=left;verticalAlign=middle;spacingTop=-1;spacingLeft=3;spacingRight=3;rotatable=0;labelPosition=right;points=[];portConstraint=eastwest;" parent="2bxaREs7knKv4sqMbuMS-3" vertex="1">
          <mxGeometry y="250" width="210" height="8" as="geometry" />
        </mxCell>
        <mxCell id="2bxaREs7knKv4sqMbuMS-17" style="edgeStyle=orthogonalEdgeStyle;rounded=0;orthogonalLoop=1;jettySize=auto;html=1;exitX=0;exitY=0.5;exitDx=0;exitDy=0;entryX=0.75;entryY=0;entryDx=0;entryDy=0;" parent="WIyWlLk6GJQsqaUBKTNV-1" source="2bxaREs7knKv4sqMbuMS-13" target="zkfFHV4jXpPFQw0GAbJ--13" edge="1">
          <mxGeometry relative="1" as="geometry" />
        </mxCell>
        <mxCell id="Kh6skNde1Fd5iUF5DBpw-1" style="edgeStyle=orthogonalEdgeStyle;rounded=0;orthogonalLoop=1;jettySize=auto;html=1;exitX=0.5;exitY=1;exitDx=0;exitDy=0;entryX=0.5;entryY=0;entryDx=0;entryDy=0;" edge="1" parent="WIyWlLk6GJQsqaUBKTNV-1" source="2bxaREs7knKv4sqMbuMS-13" target="2bxaREs7knKv4sqMbuMS-3">
          <mxGeometry relative="1" as="geometry" />
        </mxCell>
        <mxCell id="Kh6skNde1Fd5iUF5DBpw-24" style="edgeStyle=orthogonalEdgeStyle;rounded=0;orthogonalLoop=1;jettySize=auto;html=1;exitX=1;exitY=0.25;exitDx=0;exitDy=0;entryX=0;entryY=0.25;entryDx=0;entryDy=0;" edge="1" parent="WIyWlLk6GJQsqaUBKTNV-1" source="2bxaREs7knKv4sqMbuMS-13" target="Kh6skNde1Fd5iUF5DBpw-17">
          <mxGeometry relative="1" as="geometry" />
        </mxCell>
        <mxCell id="Kh6skNde1Fd5iUF5DBpw-25" style="edgeStyle=orthogonalEdgeStyle;rounded=0;orthogonalLoop=1;jettySize=auto;html=1;exitX=1;exitY=0.75;exitDx=0;exitDy=0;entryX=0;entryY=0.25;entryDx=0;entryDy=0;" edge="1" parent="WIyWlLk6GJQsqaUBKTNV-1" source="2bxaREs7knKv4sqMbuMS-13" target="Kh6skNde1Fd5iUF5DBpw-11">
          <mxGeometry relative="1" as="geometry">
            <Array as="points">
              <mxPoint x="960" y="48" />
              <mxPoint x="960" y="287" />
            </Array>
          </mxGeometry>
        </mxCell>
        <mxCell id="Kh6skNde1Fd5iUF5DBpw-26" style="edgeStyle=orthogonalEdgeStyle;rounded=0;orthogonalLoop=1;jettySize=auto;html=1;exitX=1;exitY=0.75;exitDx=0;exitDy=0;entryX=0;entryY=0.25;entryDx=0;entryDy=0;" edge="1" parent="WIyWlLk6GJQsqaUBKTNV-1" source="2bxaREs7knKv4sqMbuMS-13" target="Kh6skNde1Fd5iUF5DBpw-13">
          <mxGeometry relative="1" as="geometry">
            <Array as="points">
              <mxPoint x="960" y="48" />
              <mxPoint x="960" y="353" />
            </Array>
          </mxGeometry>
        </mxCell>
        <mxCell id="Kh6skNde1Fd5iUF5DBpw-27" style="edgeStyle=orthogonalEdgeStyle;rounded=0;orthogonalLoop=1;jettySize=auto;html=1;exitX=1;exitY=0.75;exitDx=0;exitDy=0;entryX=0;entryY=0.25;entryDx=0;entryDy=0;" edge="1" parent="WIyWlLk6GJQsqaUBKTNV-1" source="2bxaREs7knKv4sqMbuMS-13" target="Kh6skNde1Fd5iUF5DBpw-15">
          <mxGeometry relative="1" as="geometry">
            <Array as="points">
              <mxPoint x="960" y="48" />
              <mxPoint x="960" y="421" />
            </Array>
          </mxGeometry>
        </mxCell>
        <mxCell id="2bxaREs7knKv4sqMbuMS-13" value="ElastiClient" style="swimlane;fontStyle=0;align=center;verticalAlign=top;childLayout=stackLayout;horizontal=1;startSize=26;horizontalStack=0;resizeParent=1;resizeLast=0;collapsible=1;marginBottom=0;rounded=0;shadow=0;strokeWidth=1;" parent="WIyWlLk6GJQsqaUBKTNV-1" vertex="1">
          <mxGeometry x="640" y="10" width="160" height="50" as="geometry">
            <mxRectangle x="340" y="380" width="170" height="26" as="alternateBounds" />
          </mxGeometry>
        </mxCell>
        <mxCell id="2bxaREs7knKv4sqMbuMS-15" value="" style="line;html=1;strokeWidth=1;align=left;verticalAlign=middle;spacingTop=-1;spacingLeft=3;spacingRight=3;rotatable=0;labelPosition=right;points=[];portConstraint=eastwest;" parent="2bxaREs7knKv4sqMbuMS-13" vertex="1">
          <mxGeometry y="26" width="160" height="8" as="geometry" />
        </mxCell>
        <mxCell id="2bxaREs7knKv4sqMbuMS-67" style="edgeStyle=orthogonalEdgeStyle;rounded=0;orthogonalLoop=1;jettySize=auto;html=1;entryX=0;entryY=0.25;entryDx=0;entryDy=0;" parent="WIyWlLk6GJQsqaUBKTNV-1" target="2bxaREs7knKv4sqMbuMS-61" edge="1">
          <mxGeometry relative="1" as="geometry">
            <mxPoint x="440" y="685" as="sourcePoint" />
          </mxGeometry>
        </mxCell>
        <mxCell id="2bxaREs7knKv4sqMbuMS-72" style="edgeStyle=orthogonalEdgeStyle;rounded=0;orthogonalLoop=1;jettySize=auto;html=1;entryX=0;entryY=0.25;entryDx=0;entryDy=0;" parent="WIyWlLk6GJQsqaUBKTNV-1" target="2bxaREs7knKv4sqMbuMS-68" edge="1">
          <mxGeometry relative="1" as="geometry">
            <mxPoint x="440" y="685" as="sourcePoint" />
          </mxGeometry>
        </mxCell>
        <mxCell id="2bxaREs7knKv4sqMbuMS-77" style="edgeStyle=orthogonalEdgeStyle;rounded=0;orthogonalLoop=1;jettySize=auto;html=1;entryX=0;entryY=0.25;entryDx=0;entryDy=0;" parent="WIyWlLk6GJQsqaUBKTNV-1" target="2bxaREs7knKv4sqMbuMS-73" edge="1">
          <mxGeometry relative="1" as="geometry">
            <mxPoint x="440" y="685" as="sourcePoint" />
          </mxGeometry>
        </mxCell>
        <mxCell id="2bxaREs7knKv4sqMbuMS-89" value="java.RMI.registry" style="swimlane;align=center;" parent="WIyWlLk6GJQsqaUBKTNV-1" vertex="1">
          <mxGeometry x="660" y="500" width="370" height="260" as="geometry" />
        </mxCell>
        <mxCell id="2bxaREs7knKv4sqMbuMS-96" style="edgeStyle=orthogonalEdgeStyle;rounded=0;orthogonalLoop=1;jettySize=auto;html=1;exitX=1;exitY=0.25;exitDx=0;exitDy=0;entryX=1;entryY=0.25;entryDx=0;entryDy=0;" parent="2bxaREs7knKv4sqMbuMS-89" source="2bxaREs7knKv4sqMbuMS-90" target="2bxaREs7knKv4sqMbuMS-92" edge="1">
          <mxGeometry relative="1" as="geometry">
            <Array as="points">
              <mxPoint x="300" y="74" />
              <mxPoint x="340" y="74" />
              <mxPoint x="340" y="166" />
            </Array>
          </mxGeometry>
        </mxCell>
        <mxCell id="2bxaREs7knKv4sqMbuMS-90" value="LocateRegistry" style="swimlane;fontStyle=0;align=center;verticalAlign=top;childLayout=stackLayout;horizontal=1;startSize=26;horizontalStack=0;resizeParent=1;resizeLast=0;collapsible=1;marginBottom=0;rounded=0;shadow=0;strokeWidth=1;" parent="2bxaREs7knKv4sqMbuMS-89" vertex="1">
          <mxGeometry x="20" y="53" width="280" height="64" as="geometry">
            <mxRectangle x="340" y="380" width="170" height="26" as="alternateBounds" />
          </mxGeometry>
        </mxCell>
        <mxCell id="2bxaREs7knKv4sqMbuMS-91" value="" style="line;html=1;strokeWidth=1;align=left;verticalAlign=middle;spacingTop=-1;spacingLeft=3;spacingRight=3;rotatable=0;labelPosition=right;points=[];portConstraint=eastwest;" parent="2bxaREs7knKv4sqMbuMS-90" vertex="1">
          <mxGeometry y="26" width="280" height="8" as="geometry" />
        </mxCell>
        <mxCell id="2bxaREs7knKv4sqMbuMS-94" value="&lt;div&gt;+ getRegistry(hostname:String,port:long):Registry&lt;/div&gt;&lt;div&gt;...&lt;br&gt;&lt;/div&gt;" style="text;html=1;align=left;verticalAlign=middle;resizable=0;points=[];autosize=1;strokeColor=none;fillColor=none;fontStyle=4" parent="2bxaREs7knKv4sqMbuMS-90" vertex="1">
          <mxGeometry y="34" width="280" height="30" as="geometry" />
        </mxCell>
        <mxCell id="2bxaREs7knKv4sqMbuMS-92" value="Registry" style="swimlane;fontStyle=0;align=center;verticalAlign=top;childLayout=stackLayout;horizontal=1;startSize=26;horizontalStack=0;resizeParent=1;resizeLast=0;collapsible=1;marginBottom=0;rounded=0;shadow=0;strokeWidth=1;" parent="2bxaREs7knKv4sqMbuMS-89" vertex="1">
          <mxGeometry x="20" y="150" width="190" height="64" as="geometry">
            <mxRectangle x="340" y="380" width="170" height="26" as="alternateBounds" />
          </mxGeometry>
        </mxCell>
        <mxCell id="2bxaREs7knKv4sqMbuMS-93" value="" style="line;html=1;strokeWidth=1;align=left;verticalAlign=middle;spacingTop=-1;spacingLeft=3;spacingRight=3;rotatable=0;labelPosition=right;points=[];portConstraint=eastwest;" parent="2bxaREs7knKv4sqMbuMS-92" vertex="1">
          <mxGeometry y="26" width="190" height="8" as="geometry" />
        </mxCell>
        <mxCell id="2bxaREs7knKv4sqMbuMS-95" value="&lt;div&gt;+ lookup(name:String):Object&lt;/div&gt;&lt;div&gt;...&lt;/div&gt;" style="text;html=1;align=left;verticalAlign=middle;resizable=0;points=[];autosize=1;strokeColor=none;fillColor=none;" parent="2bxaREs7knKv4sqMbuMS-92" vertex="1">
          <mxGeometry y="34" width="190" height="30" as="geometry" />
        </mxCell>
        <mxCell id="Kh6skNde1Fd5iUF5DBpw-2" style="edgeStyle=orthogonalEdgeStyle;rounded=0;orthogonalLoop=1;jettySize=auto;html=1;exitX=1.006;exitY=0.55;exitDx=0;exitDy=0;entryX=0;entryY=0.058;entryDx=0;entryDy=0;entryPerimeter=0;exitPerimeter=0;" edge="1" parent="WIyWlLk6GJQsqaUBKTNV-1" source="Kh6skNde1Fd5iUF5DBpw-4" target="2bxaREs7knKv4sqMbuMS-3">
          <mxGeometry relative="1" as="geometry">
            <mxPoint x="619.04" y="412" as="sourcePoint" />
          </mxGeometry>
        </mxCell>
        <mxCell id="Kh6skNde1Fd5iUF5DBpw-5" value="&lt;div&gt;...&lt;/div&gt;&lt;div&gt;System.setProperty(&quot;java.rmi.server.hostname&quot;,&quot;elastic-facade-Registry reg=LocateRegistry.getRegistry(&quot;elastic-facade-server&quot;,1099);&lt;/div&gt;&lt;div&gt;ElFac = (ElasticInterface)reg.lookup(&quot;ElasticFacade&quot;);&lt;/div&gt;&lt;div&gt;...&lt;br&gt;&lt;/div&gt;" style="shape=note2;boundedLbl=1;whiteSpace=wrap;html=1;size=16;verticalAlign=top;align=left;" vertex="1" parent="WIyWlLk6GJQsqaUBKTNV-1">
          <mxGeometry y="490" width="390" height="110" as="geometry" />
        </mxCell>
        <mxCell id="Kh6skNde1Fd5iUF5DBpw-6" value="" style="endArrow=none;dashed=1;html=1;rounded=0;entryX=0.375;entryY=0.5;entryDx=0;entryDy=0;entryPerimeter=0;exitX=0.5;exitY=0;exitDx=0;exitDy=0;exitPerimeter=0;" edge="1" parent="WIyWlLk6GJQsqaUBKTNV-1" source="Kh6skNde1Fd5iUF5DBpw-5" target="Kh6skNde1Fd5iUF5DBpw-4">
          <mxGeometry width="50" height="50" relative="1" as="geometry">
            <mxPoint x="360" y="250" as="sourcePoint" />
            <mxPoint x="410" y="200" as="targetPoint" />
          </mxGeometry>
        </mxCell>
        <mxCell id="Kh6skNde1Fd5iUF5DBpw-9" value="redis.clients.jedis" style="swimlane;align=center;" vertex="1" parent="WIyWlLk6GJQsqaUBKTNV-1">
          <mxGeometry x="1160" y="10" width="270" height="200" as="geometry" />
        </mxCell>
        <mxCell id="Kh6skNde1Fd5iUF5DBpw-17" value="Jedis" style="swimlane;fontStyle=0;align=center;verticalAlign=top;childLayout=stackLayout;horizontal=1;startSize=26;horizontalStack=0;resizeParent=1;resizeLast=0;collapsible=1;marginBottom=0;rounded=0;shadow=0;strokeWidth=1;" vertex="1" parent="Kh6skNde1Fd5iUF5DBpw-9">
          <mxGeometry x="10" y="38" width="250" height="64" as="geometry">
            <mxRectangle x="340" y="380" width="170" height="26" as="alternateBounds" />
          </mxGeometry>
        </mxCell>
        <mxCell id="Kh6skNde1Fd5iUF5DBpw-18" value="" style="line;html=1;strokeWidth=1;align=left;verticalAlign=middle;spacingTop=-1;spacingLeft=3;spacingRight=3;rotatable=0;labelPosition=right;points=[];portConstraint=eastwest;" vertex="1" parent="Kh6skNde1Fd5iUF5DBpw-17">
          <mxGeometry y="26" width="250" height="8" as="geometry" />
        </mxCell>
        <mxCell id="Kh6skNde1Fd5iUF5DBpw-19" value="&lt;div&gt;+ hset(id:String,attribute:String,value:String)&lt;br&gt;&lt;/div&gt;&lt;div&gt;...&lt;br&gt;&lt;/div&gt;" style="text;html=1;align=left;verticalAlign=middle;resizable=0;points=[];autosize=1;strokeColor=none;fillColor=none;" vertex="1" parent="Kh6skNde1Fd5iUF5DBpw-17">
          <mxGeometry y="34" width="250" height="30" as="geometry" />
        </mxCell>
        <mxCell id="Kh6skNde1Fd5iUF5DBpw-10" value="org.apache.kafka.clients.consumer" style="swimlane;align=center;" vertex="1" parent="WIyWlLk6GJQsqaUBKTNV-1">
          <mxGeometry x="1110" y="230" width="350" height="260" as="geometry" />
        </mxCell>
        <mxCell id="Kh6skNde1Fd5iUF5DBpw-11" value="KafkaConsumer" style="swimlane;fontStyle=0;align=center;verticalAlign=top;childLayout=stackLayout;horizontal=1;startSize=26;horizontalStack=0;resizeParent=1;resizeLast=0;collapsible=1;marginBottom=0;rounded=0;shadow=0;strokeWidth=1;" vertex="1" parent="Kh6skNde1Fd5iUF5DBpw-10">
          <mxGeometry x="10" y="42" width="310" height="58" as="geometry">
            <mxRectangle x="340" y="380" width="170" height="26" as="alternateBounds" />
          </mxGeometry>
        </mxCell>
        <mxCell id="Kh6skNde1Fd5iUF5DBpw-12" value="" style="line;html=1;strokeWidth=1;align=left;verticalAlign=middle;spacingTop=-1;spacingLeft=3;spacingRight=3;rotatable=0;labelPosition=right;points=[];portConstraint=eastwest;" vertex="1" parent="Kh6skNde1Fd5iUF5DBpw-11">
          <mxGeometry y="26" width="310" height="8" as="geometry" />
        </mxCell>
        <mxCell id="Kh6skNde1Fd5iUF5DBpw-20" value="&lt;div align=&quot;left&quot;&gt;poll(duration:Duration):ConsumerRecords&amp;lt;String, String&amp;gt;&lt;/div&gt;" style="text;html=1;align=left;verticalAlign=middle;resizable=0;points=[];autosize=1;strokeColor=none;fillColor=none;" vertex="1" parent="Kh6skNde1Fd5iUF5DBpw-11">
          <mxGeometry y="34" width="310" height="20" as="geometry" />
        </mxCell>
        <mxCell id="Kh6skNde1Fd5iUF5DBpw-15" value="ConsumerRecord" style="swimlane;fontStyle=0;align=center;verticalAlign=top;childLayout=stackLayout;horizontal=1;startSize=26;horizontalStack=0;resizeParent=1;resizeLast=0;collapsible=1;marginBottom=0;rounded=0;shadow=0;strokeWidth=1;" vertex="1" parent="Kh6skNde1Fd5iUF5DBpw-10">
          <mxGeometry x="20" y="170" width="160" height="84" as="geometry">
            <mxRectangle x="340" y="380" width="170" height="26" as="alternateBounds" />
          </mxGeometry>
        </mxCell>
        <mxCell id="Kh6skNde1Fd5iUF5DBpw-16" value="" style="line;html=1;strokeWidth=1;align=left;verticalAlign=middle;spacingTop=-1;spacingLeft=3;spacingRight=3;rotatable=0;labelPosition=right;points=[];portConstraint=eastwest;" vertex="1" parent="Kh6skNde1Fd5iUF5DBpw-15">
          <mxGeometry y="26" width="160" height="8" as="geometry" />
        </mxCell>
        <mxCell id="Kh6skNde1Fd5iUF5DBpw-22" value="&lt;div&gt;+ offset():Int&lt;/div&gt;&lt;div&gt;+ key():String&lt;/div&gt;&lt;div&gt;+ value():String&lt;br&gt;&lt;/div&gt;" style="text;html=1;align=left;verticalAlign=middle;resizable=0;points=[];autosize=1;strokeColor=none;fillColor=none;" vertex="1" parent="Kh6skNde1Fd5iUF5DBpw-15">
          <mxGeometry y="34" width="160" height="50" as="geometry" />
        </mxCell>
        <mxCell id="Kh6skNde1Fd5iUF5DBpw-21" style="edgeStyle=orthogonalEdgeStyle;rounded=0;orthogonalLoop=1;jettySize=auto;html=1;exitX=1;exitY=0.75;exitDx=0;exitDy=0;entryX=1;entryY=0.25;entryDx=0;entryDy=0;" edge="1" parent="Kh6skNde1Fd5iUF5DBpw-10" source="Kh6skNde1Fd5iUF5DBpw-13" target="Kh6skNde1Fd5iUF5DBpw-15">
          <mxGeometry relative="1" as="geometry">
            <Array as="points">
              <mxPoint x="220" y="140" />
              <mxPoint x="220" y="190" />
            </Array>
          </mxGeometry>
        </mxCell>
        <mxCell id="Kh6skNde1Fd5iUF5DBpw-13" value="ConsumerRecords" style="swimlane;fontStyle=0;align=center;verticalAlign=top;childLayout=stackLayout;horizontal=1;startSize=26;horizontalStack=0;resizeParent=1;resizeLast=0;collapsible=1;marginBottom=0;rounded=0;shadow=0;strokeWidth=1;" vertex="1" parent="Kh6skNde1Fd5iUF5DBpw-10">
          <mxGeometry x="20" y="110" width="160" height="50" as="geometry">
            <mxRectangle x="340" y="380" width="170" height="26" as="alternateBounds" />
          </mxGeometry>
        </mxCell>
        <mxCell id="Kh6skNde1Fd5iUF5DBpw-14" value="" style="line;html=1;strokeWidth=1;align=left;verticalAlign=middle;spacingTop=-1;spacingLeft=3;spacingRight=3;rotatable=0;labelPosition=right;points=[];portConstraint=eastwest;" vertex="1" parent="Kh6skNde1Fd5iUF5DBpw-13">
          <mxGeometry y="26" width="160" height="8" as="geometry" />
        </mxCell>
        <mxCell id="Kh6skNde1Fd5iUF5DBpw-23" value="0,...,n" style="text;html=1;align=center;verticalAlign=middle;resizable=0;points=[];autosize=1;strokeColor=none;fillColor=none;" vertex="1" parent="Kh6skNde1Fd5iUF5DBpw-10">
          <mxGeometry x="180" y="125" width="50" height="20" as="geometry" />
        </mxCell>
      </root>
    </mxGraphModel>
  </diagram>
</mxfile>
